<svg width="1024" height="1024" viewBox="0 0 1024 1024" fill="none" xmlns="http://www.w3.org/2000/svg">
<path d="M133.197 621.7C124.692 677.452 162.715 716.149 209.269 735.434C387.75 809.371 636.124 809.371 814.604 735.434C861.159 716.148 899.182 677.452 890.677 621.7C885.45 587.437 859.605 558.907 840.458 531.047C815.378 494.107 812.885 453.816 812.882 410.95C812.882 245.292 678.144 111 511.937 111C345.73 111 210.992 245.292 210.992 410.95C210.988 453.816 208.496 494.107 183.416 531.047C164.268 558.907 138.423 587.437 133.197 621.7Z" fill="#335CFF" stroke="#335CFF" stroke-width="50" stroke-linecap="round" stroke-linejoin="round"/>
<path d="M671.911 801.585C672.068 801.585 672.216 801.659 672.31 801.784C672.404 801.91 672.434 802.072 672.391 802.223C653.986 866.247 589.098 913.5 511.937 913.5C434.776 913.5 369.888 866.247 351.483 802.223C351.44 802.072 351.47 801.91 351.564 801.784C351.658 801.659 351.806 801.585 351.963 801.585H671.911Z" fill="#335CFF" stroke="#335CFF" stroke-linecap="round" stroke-linejoin="round"/>
<path d="M381.766 599.232C381.766 584.421 384.777 570.18 390.799 556.508C393.566 556.508 397.879 557.077 403.738 558.217C409.598 559.193 415.783 560.495 422.293 562.123C421.479 527.13 421.072 492.95 421.072 459.584C421.072 423.614 421.723 392.934 423.025 367.543H422.781L423.025 364.613L383.23 359.486C380.789 349.558 379.161 341.339 378.348 334.828C377.534 328.155 377.208 320.505 377.371 311.879C382.579 306.02 390.229 300.893 400.32 296.498C410.574 291.941 421.561 288.523 433.279 286.244C445.161 283.803 455.984 282.582 465.75 282.582C484.467 282.582 499.035 286.326 509.451 293.812C520.031 301.137 526.053 312.855 527.518 328.969C528.006 335.316 528.25 342.234 528.25 349.721C528.25 374.46 526.053 403.757 521.658 437.611C517.264 471.465 511.404 511.016 504.08 556.264L502.127 568.959L564.383 572.377L589.773 491.322C597.423 490.997 606.131 491.566 615.896 493.031C625.825 494.496 634.37 496.531 641.531 499.135C644.461 506.785 647.146 518.992 649.588 535.756C652.192 552.357 653.494 568.633 653.494 584.584C653.494 611.114 649.588 629.75 641.775 640.492C637.869 645.701 632.417 650.258 625.418 654.164C618.582 657.908 611.339 660.756 603.689 662.709C596.202 664.825 589.448 665.883 583.426 665.883C573.823 665.883 562.592 663.848 549.734 659.779C536.876 655.548 524.262 650.258 511.893 643.91C499.523 637.4 489.35 630.889 481.375 624.379C474.051 637.074 465.587 646.921 455.984 653.92C446.382 660.919 434.419 664.906 420.096 665.883C413.097 664.743 406.668 661.081 400.809 654.896C394.949 648.712 390.311 640.736 386.893 630.971C383.475 621.205 381.766 610.626 381.766 599.232Z" fill="white"/>
</svg>
